<svg width="10" height="10" viewBox="0 0 10 10" fill="none" xmlns="http://www.w3.org/2000/svg">
<path d="M5 10C7.76142 10 10 7.76142 10 5C10 2.23858 7.76142 0 5 0C2.23858 0 0 2.23858 0 5C0 7.76142 2.23858 10 5 10Z" fill="#3CAEAE"/>
<mask id="path-2-inside-1_0_1" fill="white">
<path fill-rule="evenodd" clip-rule="evenodd" d="M6.05128 3L5.71037 3.35L7.074 4.75H3V5.25H7.074L5.71131 6.65L6.05222 7L8 5L6.05128 3Z"/>
</mask>
<path fill-rule="evenodd" clip-rule="evenodd" d="M6.05128 3L5.71037 3.35L7.074 4.75H3V5.25H7.074L5.71131 6.65L6.05222 7L8 5L6.05128 3Z" fill="white"/>
<path d="M6.05128 3L16.0785 -6.77012L6.04955 -17.0629L-3.97761 -6.76839L6.05128 3ZM5.71037 3.35L-4.31851 -6.41839L-13.8332 3.35L-4.31852 13.1184L5.71037 3.35ZM7.074 4.75V18.75H40.2539L17.1029 -5.01839L7.074 4.75ZM3 4.75V-9.25H-11V4.75H3ZM3 5.25H-11V19.25H3V5.25ZM7.074 5.25L17.1063 15.0149L40.238 -8.75L7.074 -8.75V5.25ZM5.71131 6.65L-4.32094 -3.11494L-13.829 6.65336L-4.31758 16.4184L5.71131 6.65ZM6.05222 7L-3.97667 16.7684L6.0529 27.0654L16.0818 16.7677L6.05222 7ZM8 5L18.0296 14.7677L27.5445 4.99764L18.0272 -4.77012L8 5ZM-3.97761 -6.76839L-4.31851 -6.41839L15.7393 13.1184L16.0802 12.7684L-3.97761 -6.76839ZM-4.31852 13.1184L-2.95488 14.5184L17.1029 -5.01839L15.7393 -6.41839L-4.31852 13.1184ZM7.074 -9.25H3V18.75H7.074V-9.25ZM-11 4.75V5.25H17V4.75H-11ZM3 19.25H7.074V-8.75H3V19.25ZM-2.95824 -4.51494L-4.32094 -3.11494L15.7436 16.4149L17.1063 15.0149L-2.95824 -4.51494ZM-4.31758 16.4184L-3.97667 16.7684L16.0811 -2.76839L15.7402 -3.11839L-4.31758 16.4184ZM16.0818 16.7677L18.0296 14.7677L-2.02956 -4.7677L-3.97734 -2.7677L16.0818 16.7677ZM18.0272 -4.77012L16.0785 -6.77012L-3.97592 12.7701L-2.0272 14.7701L18.0272 -4.77012Z" fill="white" mask="url(#path-2-inside-1_0_1)"/>
</svg>
