<svg width="30" height="26" viewBox="0 0 30 26" fill="none" xmlns="http://www.w3.org/2000/svg">
<path d="M0 23.3452V1.67856C0 1.06745 0.25 0.601893 0.75 0.281893C1.25 -0.036996 1.77778 -0.0853299 2.33333 0.136892L28 10.9702C28.6944 11.2758 29.0417 11.7897 29.0417 12.5119C29.0417 13.2341 28.6944 13.748 28 14.0536L2.33333 24.8869C1.77778 25.1091 1.25 25.0602 0.75 24.7402C0.25 24.4213 0 23.9563 0 23.3452ZM3.33333 20.8452L23.0833 12.5119L3.33333 4.17856V10.0119L13.3333 12.5119L3.33333 15.0119V20.8452ZM3.33333 12.5119V4.17856V20.8452V12.5119Z" fill="white"/>
</svg>
